<svg width="21" height="21" viewBox="0 0 21 21" fill="none" xmlns="http://www.w3.org/2000/svg">
<path d="M20.801 19.8575L15.3791 14.5223C16.7989 12.9797 17.6713 10.9396 17.6713 8.69472C17.6706 3.89245 13.7151 0 8.83544 0C3.95573 0 0.000244141 3.89245 0.000244141 8.69472C0.000244141 13.497 3.95573 17.3894 8.83544 17.3894C10.9438 17.3894 12.8776 16.6602 14.3965 15.4478L19.8394 20.804C20.1046 21.0653 20.5352 21.0653 20.8004 20.804C21.0662 20.5428 21.0662 20.1188 20.801 19.8575ZM8.83544 16.0517C4.70667 16.0517 1.35966 12.7579 1.35966 8.69472C1.35966 4.63156 4.70667 1.33773 8.83544 1.33773C12.9642 1.33773 16.3112 4.63156 16.3112 8.69472C16.3112 12.7579 12.9642 16.0517 8.83544 16.0517Z" fill="#2A3848"/>
</svg>
