<svg width="23" height="23" viewBox="0 0 23 23" fill="none" xmlns="http://www.w3.org/2000/svg">
<path d="M22.2812 5.75H0.71875C0.528126 5.75 0.345309 5.67427 0.210517 5.53948C0.0757252 5.40469 0 5.22187 0 5.03125C0 4.84063 0.0757252 4.65781 0.210517 4.52302C0.345309 4.38823 0.528126 4.3125 0.71875 4.3125H22.2812C22.4719 4.3125 22.6547 4.38823 22.7895 4.52302C22.9243 4.65781 23 4.84063 23 5.03125C23 5.22187 22.9243 5.40469 22.7895 5.53948C22.6547 5.67427 22.4719 5.75 22.2812 5.75Z" fill="#333845"/>
<path d="M22.2812 12.9375H0.71875C0.528126 12.9375 0.345309 12.8618 0.210517 12.727C0.0757252 12.5922 0 12.4094 0 12.2188C0 12.0281 0.0757252 11.8453 0.210517 11.7105C0.345309 11.5757 0.528126 11.5 0.71875 11.5H22.2812C22.4719 11.5 22.6547 11.5757 22.7895 11.7105C22.9243 11.8453 23 12.0281 23 12.2188C23 12.4094 22.9243 12.5922 22.7895 12.727C22.6547 12.8618 22.4719 12.9375 22.2812 12.9375Z" fill="#333845"/>
<path d="M22.2812 20.125H0.71875C0.528126 20.125 0.345309 20.0493 0.210517 19.9145C0.0757252 19.7797 0 19.5969 0 19.4062C0 19.2156 0.0757252 19.0328 0.210517 18.898C0.345309 18.7632 0.528126 18.6875 0.71875 18.6875H22.2812C22.4719 18.6875 22.6547 18.7632 22.7895 18.898C22.9243 19.0328 23 19.2156 23 19.4062C23 19.5969 22.9243 19.7797 22.7895 19.9145C22.6547 20.0493 22.4719 20.125 22.2812 20.125Z" fill="#333845"/>
</svg>
