<svg width="16" height="16" viewBox="0 0 16 16" fill="none" xmlns="http://www.w3.org/2000/svg">
<path fill-rule="evenodd" clip-rule="evenodd" d="M7.99201 0.352051C9.18591 0.352214 10.3632 0.631597 11.4299 1.16788C12.4966 1.70416 13.4231 2.48248 14.1353 3.44066C14.8476 4.39883 15.3259 5.51031 15.532 6.68629C15.7381 7.86226 15.6664 9.07015 15.3224 10.2134C14.9785 11.3567 14.372 12.4038 13.5513 13.2709C12.7306 14.138 11.7185 14.8011 10.5958 15.2073C9.4731 15.6135 8.27098 15.7515 7.08546 15.6103C5.89993 15.4691 4.76386 15.0526 3.76801 14.3941C2.72601 14.7441 0.816007 15.3601 0.816007 15.3601C0.816007 15.3601 1.45601 13.4601 1.77601 12.4791C0.953555 11.3352 0.46263 9.98661 0.357263 8.58171C0.251897 7.17682 0.536174 5.77009 1.17881 4.51636C1.82144 3.26262 2.79751 2.21049 3.9996 1.47576C5.20168 0.741037 6.58317 0.3522 7.99201 0.352051ZM4.96801 3.84005C5.19082 3.81212 5.41702 3.8312 5.63201 3.89605C5.77395 4.03167 5.87392 4.20522 5.92001 4.39605L6.45601 5.67205C6.57038 5.83807 6.62147 6.03959 6.60001 6.24005C6.46108 6.51147 6.27405 6.75542 6.04801 6.96005C5.95986 7.0392 5.89138 7.13781 5.84801 7.24805C5.84228 7.31561 5.8515 7.3836 5.875 7.4472C5.89851 7.5108 5.93572 7.56845 5.98401 7.61605C6.17601 7.91605 6.37701 8.19505 6.59201 8.47205C7.11319 9.10285 7.76931 9.60862 8.51201 9.95205C8.62986 10.0401 8.7644 10.1032 8.90744 10.1376C9.05047 10.172 9.19901 10.1769 9.34401 10.1521C9.61744 9.91743 9.84995 9.63896 10.032 9.32805C10.0728 9.23364 10.1446 9.15598 10.2355 9.10797C10.3264 9.05995 10.4311 9.04446 10.532 9.06405C10.698 9.11857 10.8587 9.18819 11.012 9.27205C11.363 9.42705 11.702 9.59605 12.036 9.77205C12.237 9.8314 12.4226 9.93377 12.58 10.0721C12.6295 10.2347 12.6322 10.4079 12.588 10.5721C12.5626 10.9717 12.3952 11.349 12.116 11.6361C11.7863 11.9112 11.4018 12.113 10.988 12.2281C10.18 12.3276 9.36088 12.1783 8.64001 11.8001C8.24268 11.6547 7.85748 11.4782 7.48801 11.2721C6.051 10.3627 4.86104 9.11232 4.02401 7.63205C3.80503 7.23798 3.65105 6.81116 3.56801 6.36805C3.5282 6.17046 3.52279 5.96748 3.55201 5.76805L3.59201 5.40005C3.67518 5.04287 3.83334 4.70745 4.05601 4.41605C4.14449 4.28583 4.24935 4.16753 4.36801 4.06405C4.49065 3.97484 4.6291 3.90969 4.77601 3.87205L4.96801 3.84005Z" fill="black"/>
</svg>
