<svg width="31" height="34" viewBox="0 0 31 34" fill="none" xmlns="http://www.w3.org/2000/svg">
<path fill-rule="evenodd" clip-rule="evenodd" d="M14.4453 3.46094C6.52562 3.46094 0.10498 9.88096 0.10498 17.8013C0.10498 21.3941 1.42637 24.6778 3.60956 27.1941C3.15922 28.7931 2.58489 30.8622 2.2894 32.0441C1.76011 34.1632 2.98218 33.429 2.98218 33.429L8.50029 30.8547L8.49968 30.8541C10.3109 31.6808 12.3244 32.141 14.4453 32.141C22.3656 32.141 28.7856 25.721 28.7856 17.8006C28.7856 9.88034 22.3656 3.46094 14.4453 3.46094Z" fill="white"/>
<path fill-rule="evenodd" clip-rule="evenodd" d="M16.3041 0.922363C24.2231 0.922363 30.6438 7.34299 30.6438 15.2627C30.6438 18.8555 29.3224 22.1392 27.1392 24.6555C27.5895 26.2551 28.1639 28.3242 28.4594 29.5061C28.9886 31.6246 27.7672 30.8911 27.7672 30.8911L22.2491 28.3162C20.4379 29.1428 18.425 29.6024 16.3041 29.6024C8.38377 29.6024 1.96313 23.1824 1.96313 15.2621C1.96313 7.34299 8.38377 0.922363 16.3041 0.922363Z" fill="#FFD600"/>
<path fill-rule="evenodd" clip-rule="evenodd" d="M19.3378 7.99274L20.2879 12.2148L24.318 13.7971C25.0028 14.063 25.3414 14.8378 25.0762 15.5225C24.9559 15.8328 24.7307 16.0722 24.4568 16.2166L20.7918 18.3917L20.5321 22.7161C20.4865 23.4509 19.8548 24.0129 19.1207 23.9672C18.7968 23.9481 18.5069 23.813 18.2879 23.6076L15.0695 20.7772L10.8753 21.8679C10.1628 22.0499 9.43545 21.6205 9.25346 20.908C9.17758 20.6119 9.20905 20.3109 9.3207 20.0493H9.31947L11.0357 16.0654L8.70813 12.4214C8.31455 11.8051 8.49653 10.9816 9.11281 10.5886C9.37129 10.4227 9.66987 10.3598 9.95425 10.3869V10.3807L14.2651 10.7823L17.0146 7.44061C17.4804 6.8743 18.32 6.79226 18.8856 7.25863C19.1225 7.45295 19.2737 7.71513 19.3366 7.99274H19.3378Z" fill="white"/>
</svg>
